<?xml version="1.0" encoding="UTF-8"?>
<!DOCTYPE svg PUBLIC "-//W3C//DTD SVG 1.1//EN" "http://www.w3.org/Graphics/SVG/1.1/DTD/svg11.dtd">
<svg xmlns="http://www.w3.org/2000/svg" version="1.1" width="512px" height="512px" style="shape-rendering:geometricPrecision; text-rendering:geometricPrecision; image-rendering:optimizeQuality; fill-rule:evenodd; clip-rule:evenodd" xmlns:xlink="http://www.w3.org/1999/xlink">
<g><path style="opacity:0.994" fill="#fe4155" d="M 247.5,-0.5 C 256.167,-0.5 264.833,-0.5 273.5,-0.5C 294.911,3.53891 312.244,14.2056 325.5,31.5C 343.187,56.8258 346.187,83.8258 334.5,112.5C 331.653,118.206 328.32,123.539 324.5,128.5C 308.54,128.946 294.707,123.613 283,112.5C 273.594,101.552 270.094,88.8851 272.5,74.5C 273.251,73.4265 274.251,73.2599 275.5,74C 279.167,77.6667 282.833,81.3333 286.5,85C 292.675,88.7766 298.175,87.9433 303,82.5C 305.298,77.5728 304.964,72.9061 302,68.5C 290.105,55.9355 277.605,44.1021 264.5,33C 261.833,32.3333 259.167,32.3333 256.5,33C 250.997,37.6706 245.664,42.504 240.5,47.5C 230.049,48.3576 221.549,44.691 215,36.5C 211.903,30.6991 209.736,24.6991 208.5,18.5C 219.787,8.6898 232.787,2.35647 247.5,-0.5 Z"/></g>
<g><path style="opacity:1" fill="#e70655" d="M 208.5,18.5 C 209.736,24.6991 211.903,30.6991 215,36.5C 221.549,44.691 230.049,48.3576 240.5,47.5C 233.536,54.9649 226.369,62.2982 219,69.5C 214.995,80.6787 218.828,86.5121 230.5,87C 236.068,83.4403 241.068,79.107 245.5,74C 246.793,73.51 248.127,73.3433 249.5,73.5C 249.333,89.1702 249.5,104.837 250,120.5C 252.905,128.534 258.405,131.034 266.5,128C 268.378,126.457 269.878,124.624 271,122.5C 271.169,106.328 271.669,90.3281 272.5,74.5C 270.094,88.8851 273.594,101.552 283,112.5C 294.707,123.613 308.54,128.946 324.5,128.5C 315.428,140.911 303.761,149.911 289.5,155.5C 277.79,159.118 265.79,160.784 253.5,160.5C 231.731,157.448 213.397,147.781 198.5,131.5C 179.801,106.486 175.635,79.1522 186,49.5C 189.759,41.6374 194.259,34.3041 199.5,27.5C 202.167,24.1667 205.167,21.1667 208.5,18.5 Z"/></g>
<g><path style="opacity:0.995" fill="#41416b" d="M 199.5,27.5 C 194.259,34.3041 189.759,41.6374 186,49.5C 175.635,79.1522 179.801,106.486 198.5,131.5C 184.493,137.532 171.827,145.532 160.5,155.5C 158.596,155.738 157.262,156.738 156.5,158.5C 155.5,158.5 154.5,158.5 153.5,158.5C 153.5,148.5 153.5,138.5 153.5,128.5C 160.558,127.074 163.058,122.74 161,115.5C 159.117,112.976 156.617,111.642 153.5,111.5C 153.667,98.8289 153.5,86.1623 153,73.5C 151.726,69.0099 150.059,64.6766 148,60.5C 145.48,56.7757 142.98,53.1091 140.5,49.5C 159.208,39.648 178.875,32.3147 199.5,27.5 Z"/></g>
<g><path style="opacity:0.991" fill="#41416b" d="M 325.5,31.5 C 402.955,55.7858 456.455,105.786 486,181.5C 494.649,205.427 499.482,230.093 500.5,255.5C 470.557,178.569 415.224,130.903 334.5,112.5C 346.187,83.8258 343.187,56.8258 325.5,31.5 Z"/></g>
<g><path style="opacity:1" fill="#e6f5fa" d="M 272.5,74.5 C 271.669,90.3281 271.169,106.328 271,122.5C 269.878,124.624 268.378,126.457 266.5,128C 258.405,131.034 252.905,128.534 250,120.5C 249.5,104.837 249.333,89.1702 249.5,73.5C 248.127,73.3433 246.793,73.51 245.5,74C 241.068,79.107 236.068,83.4403 230.5,87C 218.828,86.5121 214.995,80.6787 219,69.5C 226.369,62.2982 233.536,54.9649 240.5,47.5C 245.664,42.504 250.997,37.6706 256.5,33C 259.167,32.3333 261.833,32.3333 264.5,33C 277.605,44.1021 290.105,55.9355 302,68.5C 304.964,72.9061 305.298,77.5728 303,82.5C 298.175,87.9433 292.675,88.7766 286.5,85C 282.833,81.3333 279.167,77.6667 275.5,74C 274.251,73.2599 273.251,73.4265 272.5,74.5 Z"/></g>
<g><path style="opacity:0.994" fill="#e5f7fb" d="M 140.5,49.5 C 142.98,53.1091 145.48,56.7757 148,60.5C 150.059,64.6766 151.726,69.0099 153,73.5C 153.5,86.1623 153.667,98.8289 153.5,111.5C 143.5,111.5 133.5,111.5 123.5,111.5C 123.667,100.495 123.5,89.495 123,78.5C 118.325,68.2474 110.492,64.5808 99.5,67.5C 89.9915,65.3193 85.3248,59.3193 85.5,49.5C 85.669,46.4673 86.0023,43.4673 86.5,40.5C 106.384,32.3401 124.384,35.3401 140.5,49.5 Z"/></g>
<g><path style="opacity:1" fill="#b7e6f7" d="M 86.5,40.5 C 86.0023,43.4673 85.669,46.4673 85.5,49.5C 85.3248,59.3193 89.9915,65.3193 99.5,67.5C 95.8112,70.0286 92.9779,73.3619 91,77.5C 90.5001,91.496 90.3334,105.496 90.5,119.5C 90.6667,193.167 90.5,266.834 90,340.5C 88.4079,347.464 85.5746,353.797 81.5,359.5C 73.323,365.503 64.9896,371.336 56.5,377C 51.9357,381.395 47.6023,385.895 43.5,390.5C 38.0344,381.235 33.3677,371.568 29.5,361.5C 32.5675,358.118 35.9008,354.952 39.5,352C 46,347.5 52.5,343 59,338.5C 59.5,265.501 59.6667,192.501 59.5,119.5C 59.3334,105.496 59.5001,91.496 60,77.5C 62.4709,60.5409 71.3042,48.2075 86.5,40.5 Z"/></g>
<g><path style="opacity:1" fill="#fb6379" d="M 123.5,111.5 C 123.5,114.167 123.5,116.833 123.5,119.5C 112.5,119.5 101.5,119.5 90.5,119.5C 90.3334,105.496 90.5001,91.496 91,77.5C 92.9779,73.3619 95.8112,70.0286 99.5,67.5C 110.492,64.5808 118.325,68.2474 123,78.5C 123.5,89.495 123.667,100.495 123.5,111.5 Z"/></g>
<g><path style="opacity:1" fill="#5dcbf6" d="M 123.5,111.5 C 133.5,111.5 143.5,111.5 153.5,111.5C 156.617,111.642 159.117,112.976 161,115.5C 163.058,122.74 160.558,127.074 153.5,128.5C 143.5,128.5 133.5,128.5 123.5,128.5C 123.5,125.5 123.5,122.5 123.5,119.5C 123.5,116.833 123.5,114.167 123.5,111.5 Z"/></g>
<g><path style="opacity:1" fill="#a2e96e" d="M 334.5,112.5 C 415.224,130.903 470.557,178.569 500.5,255.5C 502.737,297.532 494.403,337.198 475.5,374.5C 471.832,365.006 466.499,356.506 459.5,349C 456.785,347.092 453.785,345.759 450.5,345C 430.639,346.537 412.972,341.204 397.5,329C 393.202,324.55 389.535,319.717 386.5,314.5C 389,311.168 392,308.334 395.5,306C 408.764,298.397 421.764,290.397 434.5,282C 438.945,278.89 440.445,274.723 439,269.5C 426.182,252.328 409.016,242.162 387.5,239C 377.553,234.934 375.053,228.101 380,218.5C 394.595,210.185 395.095,201.351 381.5,192C 375.637,189.601 369.637,187.601 363.5,186C 353.335,185.452 343.335,186.118 333.5,188C 325.691,184.574 320.524,178.741 318,170.5C 314.181,167.928 310.348,168.095 306.5,171C 301.503,174.834 296.17,178.167 290.5,181C 282.946,181.112 280.446,177.612 283,170.5C 287.909,166.682 290.076,161.682 289.5,155.5C 303.761,149.911 315.428,140.911 324.5,128.5C 328.32,123.539 331.653,118.206 334.5,112.5 Z"/></g>
<g><path style="opacity:0.992" fill="#41416b" d="M 59.5,119.5 C 59.6667,192.501 59.5,265.501 59,338.5C 52.5,343 46,347.5 39.5,352C 35.9008,354.952 32.5675,358.118 29.5,361.5C 12.1557,320.918 6.32237,278.585 12,234.5C 17.4469,191.64 33.2802,153.307 59.5,119.5 Z"/></g>
<g><path style="opacity:0.999" fill="#fe4155" d="M 90.5,119.5 C 101.5,119.5 112.5,119.5 123.5,119.5C 123.5,122.5 123.5,125.5 123.5,128.5C 123.5,138.5 123.5,148.5 123.5,158.5C 123.5,164.167 123.5,169.833 123.5,175.5C 123.5,185.5 123.5,195.5 123.5,205.5C 123.5,211.167 123.5,216.833 123.5,222.5C 123.5,232.5 123.5,242.5 123.5,252.5C 123.5,258.167 123.5,263.833 123.5,269.5C 123.5,279.5 123.5,289.5 123.5,299.5C 123.5,305.167 123.5,310.833 123.5,316.5C 123.334,324.507 123.5,332.507 124,340.5C 125.626,350.588 130.459,358.755 138.5,365C 175.526,385.225 189.693,416.058 181,457.5C 177.222,471.07 170.389,482.737 160.5,492.5C 152.399,489.615 144.733,485.949 137.5,481.5C 131.717,470.465 129.717,458.799 131.5,446.5C 142.123,435.757 142.123,424.923 131.5,414C 124.894,410.4 117.894,409.566 110.5,411.5C 89.8372,408.671 79.1705,396.837 78.5,376C 78.4688,370.296 79.4688,364.796 81.5,359.5C 85.5746,353.797 88.4079,347.464 90,340.5C 90.5,266.834 90.6667,193.167 90.5,119.5 Z"/></g>
<g><path style="opacity:1" fill="#e5f8fb" d="M 123.5,128.5 C 133.5,128.5 143.5,128.5 153.5,128.5C 153.5,138.5 153.5,148.5 153.5,158.5C 143.5,158.5 133.5,158.5 123.5,158.5C 123.5,148.5 123.5,138.5 123.5,128.5 Z"/></g>
<g><path style="opacity:1" fill="#019cf1" d="M 198.5,131.5 C 213.397,147.781 231.731,157.448 253.5,160.5C 253.28,166.622 254.78,172.288 258,177.5C 266.841,186.518 273.674,196.851 278.5,208.5C 269.927,216.308 265.76,225.975 266,237.5C 268,240.167 270,242.833 272,245.5C 272.806,250.013 274.139,254.346 276,258.5C 278.251,260.377 280.751,261.877 283.5,263C 294.891,263.09 306.224,263.757 317.5,265C 319.5,266.333 321.5,267.667 323.5,269C 327.273,273.893 331.273,278.56 335.5,283C 339.906,284.967 344.239,284.8 348.5,282.5C 368.33,284.672 380.663,295.339 385.5,314.5C 376.953,325.396 374.119,337.73 377,351.5C 379.217,363.151 383.217,374.151 389,384.5C 394.891,394.39 401.557,403.723 409,412.5C 413.619,419.691 414.619,427.357 412,435.5C 408.202,444.755 404.702,454.089 401.5,463.5C 364.744,491.089 323.411,507.089 277.5,511.5C 262.833,511.5 248.167,511.5 233.5,511.5C 224.302,510.064 214.969,508.564 205.5,507C 199.887,506.053 194.554,504.553 189.5,502.5C 191.017,502.489 192.184,501.823 193,500.5C 196.394,496.102 199.394,491.435 202,486.5C 206.879,475.688 211.045,464.688 214.5,453.5C 223.14,446.068 233.14,443.235 244.5,445C 252.02,447.306 259.687,448.306 267.5,448C 276.085,446.259 280.418,441.092 280.5,432.5C 270.382,430.212 264.549,423.879 263,413.5C 261.812,404.916 263.479,396.916 268,389.5C 276.016,378.804 283.016,367.47 289,355.5C 293.207,344.553 292.207,334.219 286,324.5C 272.947,311.72 257.447,303.22 239.5,299C 228.852,297.463 218.186,296.13 207.5,295C 195.836,292.35 191.003,285.183 193,273.5C 196.667,267.167 200.333,260.833 204,254.5C 206.655,248.361 205.822,242.861 201.5,238C 183.726,232.302 176.226,220.135 179,201.5C 181.122,195.377 184.788,190.377 190,186.5C 191.361,181.726 189.861,178.226 185.5,176C 174.211,172.525 165.878,165.692 160.5,155.5C 171.827,145.532 184.493,137.532 198.5,131.5 Z"/></g>
<g><path style="opacity:1" fill="#60b550" d="M 160.5,155.5 C 165.878,165.692 174.211,172.525 185.5,176C 189.861,178.226 191.361,181.726 190,186.5C 184.788,190.377 181.122,195.377 179,201.5C 176.226,220.135 183.726,232.302 201.5,238C 205.822,242.861 206.655,248.361 204,254.5C 200.333,260.833 196.667,267.167 193,273.5C 191.003,285.183 195.836,292.35 207.5,295C 218.186,296.13 228.852,297.463 239.5,299C 257.447,303.22 272.947,311.72 286,324.5C 292.207,334.219 293.207,344.553 289,355.5C 283.016,367.47 276.016,378.804 268,389.5C 263.479,396.916 261.812,404.916 263,413.5C 264.549,423.879 270.382,430.212 280.5,432.5C 280.418,441.092 276.085,446.259 267.5,448C 259.687,448.306 252.02,447.306 244.5,445C 233.14,443.235 223.14,446.068 214.5,453.5C 218.54,403.212 198.873,365.212 155.5,339.5C 155,338.5 154.5,337.5 154,336.5C 153.5,329.842 153.334,323.175 153.5,316.5C 161.274,314.614 163.441,309.947 160,302.5C 158.266,300.549 156.099,299.549 153.5,299.5C 153.5,289.5 153.5,279.5 153.5,269.5C 161.267,267.628 163.434,262.961 160,255.5C 158.266,253.549 156.099,252.549 153.5,252.5C 153.5,242.5 153.5,232.5 153.5,222.5C 161.267,220.628 163.434,215.961 160,208.5C 158.157,206.829 155.991,205.829 153.5,205.5C 153.5,195.5 153.5,185.5 153.5,175.5C 160.579,174.026 163.079,169.692 161,162.5C 159.603,160.93 158.103,159.596 156.5,158.5C 157.262,156.738 158.596,155.738 160.5,155.5 Z"/></g>
<g><path style="opacity:1" fill="#5ccbf6" d="M 289.5,155.5 C 290.076,161.682 287.909,166.682 283,170.5C 280.446,177.612 282.946,181.112 290.5,181C 296.17,178.167 301.503,174.834 306.5,171C 310.348,168.095 314.181,167.928 318,170.5C 320.524,178.741 325.691,184.574 333.5,188C 343.335,186.118 353.335,185.452 363.5,186C 369.637,187.601 375.637,189.601 381.5,192C 395.095,201.351 394.595,210.185 380,218.5C 375.053,228.101 377.553,234.934 387.5,239C 409.016,242.162 426.182,252.328 439,269.5C 440.445,274.723 438.945,278.89 434.5,282C 421.764,290.397 408.764,298.397 395.5,306C 392,308.334 389,311.168 386.5,314.5C 386.167,314.5 385.833,314.5 385.5,314.5C 380.663,295.339 368.33,284.672 348.5,282.5C 352.089,278.524 353.256,273.858 352,268.5C 349.667,265.5 347.333,262.5 345,259.5C 342.626,255.106 341.959,250.44 343,245.5C 349.816,241.082 351.149,235.415 347,228.5C 343.476,223.306 338.643,220.139 332.5,219C 322.26,217.153 311.927,216.153 301.5,216C 297.167,213 292.833,210 288.5,207C 284.979,206.309 281.645,206.809 278.5,208.5C 273.674,196.851 266.841,186.518 258,177.5C 254.78,172.288 253.28,166.622 253.5,160.5C 265.79,160.784 277.79,159.118 289.5,155.5 Z"/></g>
<g><path style="opacity:1" fill="#5ecbf6" d="M 123.5,158.5 C 133.5,158.5 143.5,158.5 153.5,158.5C 154.5,158.5 155.5,158.5 156.5,158.5C 158.103,159.596 159.603,160.93 161,162.5C 163.079,169.692 160.579,174.026 153.5,175.5C 143.5,175.5 133.5,175.5 123.5,175.5C 123.5,169.833 123.5,164.167 123.5,158.5 Z"/></g>
<g><path style="opacity:1" fill="#e5f8fb" d="M 123.5,175.5 C 133.5,175.5 143.5,175.5 153.5,175.5C 153.5,185.5 153.5,195.5 153.5,205.5C 143.5,205.5 133.5,205.5 123.5,205.5C 123.5,195.5 123.5,185.5 123.5,175.5 Z"/></g>
<g><path style="opacity:1" fill="#5dcbf6" d="M 123.5,205.5 C 133.5,205.5 143.5,205.5 153.5,205.5C 155.991,205.829 158.157,206.829 160,208.5C 163.434,215.961 161.267,220.628 153.5,222.5C 143.5,222.5 133.5,222.5 123.5,222.5C 123.5,216.833 123.5,211.167 123.5,205.5 Z"/></g>
<g><path style="opacity:1" fill="#a2e96f" d="M 348.5,282.5 C 344.239,284.8 339.906,284.967 335.5,283C 331.273,278.56 327.273,273.893 323.5,269C 321.5,267.667 319.5,266.333 317.5,265C 306.224,263.757 294.891,263.09 283.5,263C 280.751,261.877 278.251,260.377 276,258.5C 274.139,254.346 272.806,250.013 272,245.5C 270,242.833 268,240.167 266,237.5C 265.76,225.975 269.927,216.308 278.5,208.5C 281.645,206.809 284.979,206.309 288.5,207C 292.833,210 297.167,213 301.5,216C 311.927,216.153 322.26,217.153 332.5,219C 338.643,220.139 343.476,223.306 347,228.5C 351.149,235.415 349.816,241.082 343,245.5C 341.959,250.44 342.626,255.106 345,259.5C 347.333,262.5 349.667,265.5 352,268.5C 353.256,273.858 352.089,278.524 348.5,282.5 Z"/></g>
<g><path style="opacity:1" fill="#e5f8fb" d="M 123.5,222.5 C 133.5,222.5 143.5,222.5 153.5,222.5C 153.5,232.5 153.5,242.5 153.5,252.5C 143.5,252.5 133.5,252.5 123.5,252.5C 123.5,242.5 123.5,232.5 123.5,222.5 Z"/></g>
<g><path style="opacity:1" fill="#5ecbf6" d="M 123.5,252.5 C 133.5,252.5 143.5,252.5 153.5,252.5C 156.099,252.549 158.266,253.549 160,255.5C 163.434,262.961 161.267,267.628 153.5,269.5C 143.5,269.5 133.5,269.5 123.5,269.5C 123.5,263.833 123.5,258.167 123.5,252.5 Z"/></g>
<g><path style="opacity:1" fill="#e5f8fb" d="M 123.5,269.5 C 133.5,269.5 143.5,269.5 153.5,269.5C 153.5,279.5 153.5,289.5 153.5,299.5C 143.5,299.5 133.5,299.5 123.5,299.5C 123.5,289.5 123.5,279.5 123.5,269.5 Z"/></g>
<g><path style="opacity:1" fill="#5dcbf6" d="M 123.5,299.5 C 133.5,299.5 143.5,299.5 153.5,299.5C 156.099,299.549 158.266,300.549 160,302.5C 163.441,309.947 161.274,314.614 153.5,316.5C 143.5,316.5 133.5,316.5 123.5,316.5C 123.5,310.833 123.5,305.167 123.5,299.5 Z"/></g>
<g><path style="opacity:1" fill="#84d14a" d="M 385.5,314.5 C 385.833,314.5 386.167,314.5 386.5,314.5C 389.535,319.717 393.202,324.55 397.5,329C 412.972,341.204 430.639,346.537 450.5,345C 453.785,345.759 456.785,347.092 459.5,349C 466.499,356.506 471.832,365.006 475.5,374.5C 458.614,410.586 433.947,440.253 401.5,463.5C 404.702,454.089 408.202,444.755 412,435.5C 414.619,427.357 413.619,419.691 409,412.5C 401.557,403.723 394.891,394.39 389,384.5C 383.217,374.151 379.217,363.151 377,351.5C 374.119,337.73 376.953,325.396 385.5,314.5 Z"/></g>
<g><path style="opacity:0.998" fill="#e5f7fa" d="M 123.5,316.5 C 133.5,316.5 143.5,316.5 153.5,316.5C 153.334,323.175 153.5,329.842 154,336.5C 154.5,337.5 155,338.5 155.5,339.5C 198.873,365.212 218.54,403.212 214.5,453.5C 211.045,464.688 206.879,475.688 202,486.5C 199.394,491.435 196.394,496.102 193,500.5C 192.184,501.823 191.017,502.489 189.5,502.5C 179.339,500.336 169.672,497.003 160.5,492.5C 170.389,482.737 177.222,471.07 181,457.5C 189.693,416.058 175.526,385.225 138.5,365C 130.459,358.755 125.626,350.588 124,340.5C 123.5,332.507 123.334,324.507 123.5,316.5 Z"/></g>
<g><path style="opacity:1" fill="#e80454" d="M 81.5,359.5 C 79.4688,364.796 78.4688,370.296 78.5,376C 79.1705,396.837 89.8372,408.671 110.5,411.5C 98.7916,419.403 96.2916,429.736 103,442.5C 111.437,451.348 120.937,452.681 131.5,446.5C 129.717,458.799 131.717,470.465 137.5,481.5C 97.6725,460.007 66.3392,429.674 43.5,390.5C 47.6023,385.895 51.9357,381.395 56.5,377C 64.9896,371.336 73.323,365.503 81.5,359.5 Z"/></g>
<g><path style="opacity:1" fill="#f9899e" d="M 144.5,396.5 C 152.149,396.314 155.315,399.981 154,407.5C 149.748,413.653 145.081,413.986 140,408.5C 138.309,403.131 139.809,399.131 144.5,396.5 Z"/></g>
<g><path style="opacity:1" fill="#f88ba0" d="M 131.5,446.5 C 120.937,452.681 111.437,451.348 103,442.5C 96.2916,429.736 98.7916,419.403 110.5,411.5C 117.894,409.566 124.894,410.4 131.5,414C 142.123,424.923 142.123,435.757 131.5,446.5 Z"/></g>
</svg>
