<?xml version="1.0" encoding="UTF-8"?>
<!DOCTYPE svg PUBLIC "-//W3C//DTD SVG 1.1//EN" "http://www.w3.org/Graphics/SVG/1.1/DTD/svg11.dtd">
<svg xmlns="http://www.w3.org/2000/svg" version="1.1" width="512px" height="512px" style="shape-rendering:geometricPrecision; text-rendering:geometricPrecision; image-rendering:optimizeQuality; fill-rule:evenodd; clip-rule:evenodd" xmlns:xlink="http://www.w3.org/1999/xlink">
<g><path style="opacity:1" fill="#162866" d="M 118.5,-0.5 C 137.167,-0.5 155.833,-0.5 174.5,-0.5C 173.502,4.5355 174.835,8.70216 178.5,12C 170.537,16.2251 170.537,20.5585 178.5,25C 174.542,29.5714 174.542,34.0714 178.5,38.5C 173.372,38.8885 168.372,38.3885 163.5,37C 160.443,33.8387 158.943,30.0054 159,25.5C 157.363,23.1898 155.196,21.6898 152.5,21C 143.167,20.3333 133.833,20.3333 124.5,21C 119.427,22.4056 115.927,25.5723 114,30.5C 113.5,81.8323 113.333,133.166 113.5,184.5C 106.14,177.472 98.8069,170.472 91.5,163.5C 91.5,153.833 91.5,144.167 91.5,134.5C 91.5,122.833 91.5,111.167 91.5,99.5C 91.5,94.5 91.5,89.5 91.5,84.5C 91.0484,64.4458 91.5484,44.4458 93,24.5C 97.426,11.9063 105.926,3.57299 118.5,-0.5 Z"/></g>
<g><path style="opacity:0.999" fill="#2d438c" d="M 174.5,-0.5 C 215.5,-0.5 256.5,-0.5 297.5,-0.5C 312.507,4.51249 321.507,14.8458 324.5,30.5C 323.167,59.1667 323.167,87.8333 324.5,116.5C 324.667,203.167 324.5,289.834 324,376.5C 320.998,393.378 311.165,403.545 294.5,407C 254.501,407.5 214.501,407.667 174.5,407.5C 172.761,404.52 171.428,401.353 170.5,398C 171.512,393.841 173.178,390.007 175.5,386.5C 214.004,386.832 252.337,386.499 290.5,385.5C 296.225,384.944 300.058,381.944 302,376.5C 302.667,261.167 302.667,145.833 302,30.5C 300.5,26.3333 297.667,23.5 293.5,22C 282.5,21.3333 271.5,21.3333 260.5,22C 257.319,25.5109 255.486,29.6775 255,34.5C 253.362,36.7337 251.195,38.067 248.5,38.5C 225.167,38.5 201.833,38.5 178.5,38.5C 174.542,34.0714 174.542,29.5714 178.5,25C 170.537,20.5585 170.537,16.2251 178.5,12C 174.835,8.70216 173.502,4.5355 174.5,-0.5 Z"/></g>
<g><path style="opacity:1" fill="#3b579f" d="M 200.5,12.5 C 213.171,12.3334 225.838,12.5001 238.5,13C 243.833,16.6667 243.833,20.3333 238.5,24C 225.833,24.6667 213.167,24.6667 200.5,24C 196.508,20.0014 196.508,16.1681 200.5,12.5 Z"/></g>
<g><path style="opacity:1" fill="#4faaf5" d="M 178.5,38.5 C 201.833,38.5 225.167,38.5 248.5,38.5C 225.337,39.3321 202.004,39.8321 178.5,40C 173.043,47.7336 173.377,55.2336 179.5,62.5C 170.392,62.0568 161.392,62.5568 152.5,64C 145.833,70.3333 145.833,76.6667 152.5,83C 154.025,84.0086 155.692,84.5086 157.5,84.5C 164.313,85.4912 171.313,85.8245 178.5,85.5C 176.02,95.0639 178.687,102.731 186.5,108.5C 185.833,108.5 185.167,108.5 184.5,108.5C 167.405,108.029 150.405,108.529 133.5,110C 131.106,111.952 129.606,114.452 129,117.5C 128.333,137.5 128.333,157.5 129,177.5C 129.606,180.548 131.106,183.048 133.5,185C 150.405,186.471 167.405,186.971 184.5,186.5C 185.167,186.5 185.833,186.5 186.5,186.5C 182.5,191.5 182.5,196.5 186.5,201.5C 169.83,201.333 153.163,201.5 136.5,202C 134.807,202.847 133.14,203.68 131.5,204.5C 126.553,196.887 120.553,190.22 113.5,184.5C 113.333,133.166 113.5,81.8323 114,30.5C 115.927,25.5723 119.427,22.4056 124.5,21C 133.833,20.3333 143.167,20.3333 152.5,21C 155.196,21.6898 157.363,23.1898 159,25.5C 158.943,30.0054 160.443,33.8387 163.5,37C 168.372,38.3885 173.372,38.8885 178.5,38.5 Z"/></g>
<g><path style="opacity:1" fill="#73c2f8" d="M 290.5,385.5 C 252.5,385.5 214.5,385.5 176.5,385.5C 176.144,380.048 178.477,376.215 183.5,374C 168.328,373.831 153.328,373.331 138.5,372.5C 153.5,372.5 168.5,372.5 183.5,372.5C 216.587,372.986 249.587,372.486 282.5,371C 284.049,369.786 285.215,368.286 286,366.5C 286.667,344.5 286.667,322.5 286,300.5C 284.207,297.692 281.707,296.026 278.5,295.5C 248.005,294.502 217.338,294.169 186.5,294.5C 182.601,289.467 182.601,284.467 186.5,279.5C 217.835,279.667 249.168,279.5 280.5,279C 283,277.833 284.833,276 286,273.5C 286.667,251.5 286.667,229.5 286,207.5C 284.749,204.619 282.583,202.786 279.5,202C 248.502,201.5 217.502,201.333 186.5,201.5C 182.5,196.5 182.5,191.5 186.5,186.5C 217.502,186.667 248.502,186.5 279.5,186C 282.583,185.214 284.749,183.381 286,180.5C 286.667,158.5 286.667,136.5 286,114.5C 284.749,111.619 282.583,109.786 279.5,109C 248.502,108.5 217.502,108.333 186.5,108.5C 178.687,102.731 176.02,95.0639 178.5,85.5C 171.313,85.8245 164.313,85.4912 157.5,84.5C 164.833,84.5 172.167,84.5 179.5,84.5C 206.502,84.6666 233.502,84.5 260.5,84C 265.209,82.0826 267.542,78.5826 267.5,73.5C 267.62,67.9155 264.953,64.4155 259.5,63C 232.835,62.5 206.169,62.3334 179.5,62.5C 173.377,55.2336 173.043,47.7336 178.5,40C 202.004,39.8321 225.337,39.3321 248.5,38.5C 251.195,38.067 253.362,36.7337 255,34.5C 255.486,29.6775 257.319,25.5109 260.5,22C 271.5,21.3333 282.5,21.3333 293.5,22C 297.667,23.5 300.5,26.3333 302,30.5C 302.667,145.833 302.667,261.167 302,376.5C 300.058,381.944 296.225,384.944 290.5,385.5 Z"/></g>
<g><path style="opacity:0.997" fill="#816ae1" d="M 324.5,30.5 C 361.061,41.8057 393.395,60.139 421.5,85.5C 412.686,97.1321 406.52,110.132 403,124.5C 401.569,137.726 403.569,150.392 409,162.5C 415.862,178.753 422.529,195.086 429,211.5C 442.485,246.559 445.818,282.559 439,319.5C 434.859,348.869 447.359,366.535 476.5,372.5C 464.248,399.011 447.581,422.345 426.5,442.5C 416.971,418.579 407.637,394.579 398.5,370.5C 395.113,362.718 393.78,354.551 394.5,346C 395.152,331.794 396.319,317.627 398,303.5C 400.131,283.586 397.798,264.252 391,245.5C 382.231,227.963 374.564,209.963 368,191.5C 366.519,185.243 365.519,178.91 365,172.5C 364.667,153.833 364.333,135.167 364,116.5C 360.877,106.708 354.21,101.375 344,100.5C 333.707,101.299 327.207,106.632 324.5,116.5C 323.167,87.8333 323.167,59.1667 324.5,30.5 Z"/></g>
<g><path style="opacity:1" fill="#9ad7f9" d="M 179.5,62.5 C 179.5,69.8333 179.5,77.1667 179.5,84.5C 172.167,84.5 164.833,84.5 157.5,84.5C 155.692,84.5086 154.025,84.0086 152.5,83C 145.833,76.6667 145.833,70.3333 152.5,64C 161.392,62.5568 170.392,62.0568 179.5,62.5 Z"/></g>
<g><path style="opacity:1" fill="#e8eefe" d="M 179.5,62.5 C 206.169,62.3334 232.835,62.5 259.5,63C 264.953,64.4155 267.62,67.9155 267.5,73.5C 267.542,78.5826 265.209,82.0826 260.5,84C 233.502,84.5 206.502,84.6666 179.5,84.5C 179.5,77.1667 179.5,69.8333 179.5,62.5 Z"/></g>
<g><path style="opacity:0.969" fill="#836ae1" d="M 91.5,84.5 C 91.5,89.5 91.5,94.5 91.5,99.5C 88.4744,96.8046 85.4744,94.1379 82.5,91.5C 85.2327,88.7606 88.2327,86.4273 91.5,84.5 Z"/></g>
<g><path style="opacity:1" fill="#9080f1" d="M 421.5,85.5 C 482.018,143.527 507.851,214.527 499,298.5C 495.798,324.598 488.298,349.264 476.5,372.5C 447.359,366.535 434.859,348.869 439,319.5C 445.818,282.559 442.485,246.559 429,211.5C 422.529,195.086 415.862,178.753 409,162.5C 403.569,150.392 401.569,137.726 403,124.5C 406.52,110.132 412.686,97.1321 421.5,85.5 Z"/></g>
<g><path style="opacity:0.995" fill="#f8b98f" d="M 82.5,91.5 C 85.4744,94.1379 88.4744,96.8046 91.5,99.5C 91.5,111.167 91.5,122.833 91.5,134.5C 82.8707,127.04 74.3707,119.374 66,111.5C 61.4267,105.61 59.5934,98.9434 60.5,91.5C 67.6587,88.0005 74.992,88.0005 82.5,91.5 Z"/></g>
<g><path style="opacity:1" fill="#fbad6e" d="M 60.5,91.5 C 59.5934,98.9434 61.4267,105.61 66,111.5C 74.3707,119.374 82.8707,127.04 91.5,134.5C 91.5,144.167 91.5,153.833 91.5,163.5C 89.8333,162.167 88.1667,160.833 86.5,159.5C 75.1107,148.773 63.444,138.439 51.5,128.5C 44.6824,118.074 44.849,107.74 52,97.5C 54.2787,94.6194 57.112,92.6194 60.5,91.5 Z"/></g>
<g><path style="opacity:1" fill="#f8b98f" d="M 398.5,370.5 C 388.001,422.503 357.001,455.337 305.5,469C 287.771,472.497 270.105,472.33 252.5,468.5C 230.287,459.732 209.953,447.899 191.5,433C 182.886,425.226 175.219,416.726 168.5,407.5C 170.5,407.5 172.5,407.5 174.5,407.5C 214.501,407.667 254.501,407.5 294.5,407C 311.165,403.545 320.998,393.378 324,376.5C 324.5,289.834 324.667,203.167 324.5,116.5C 327.207,106.632 333.707,101.299 344,100.5C 354.21,101.375 360.877,106.708 364,116.5C 364.333,135.167 364.667,153.833 365,172.5C 365.519,178.91 366.519,185.243 368,191.5C 374.564,209.963 382.231,227.963 391,245.5C 397.798,264.252 400.131,283.586 398,303.5C 396.319,317.627 395.152,331.794 394.5,346C 393.78,354.551 395.113,362.718 398.5,370.5 Z"/></g>
<g><path style="opacity:1" fill="#d1dafa" d="M 184.5,108.5 C 181.66,109.686 179.494,111.686 178,114.5C 177.501,118.152 177.335,121.818 177.5,125.5C 171.048,125.084 164.715,125.584 158.5,127C 154.5,131.333 154.5,135.667 158.5,140C 173.83,140.5 189.163,140.667 204.5,140.5C 195.682,141.493 186.682,141.827 177.5,141.5C 177.5,145.5 177.5,149.5 177.5,153.5C 203.672,153.169 229.672,153.502 255.5,154.5C 223.165,154.333 190.832,154.5 158.5,155C 154.5,159.333 154.5,163.667 158.5,168C 190.832,168.5 223.165,168.667 255.5,168.5C 229.672,169.498 203.672,169.831 177.5,169.5C 177.335,173.182 177.501,176.848 178,180.5C 179.494,183.314 181.66,185.314 184.5,186.5C 167.405,186.971 150.405,186.471 133.5,185C 131.106,183.048 129.606,180.548 129,177.5C 128.333,157.5 128.333,137.5 129,117.5C 129.606,114.452 131.106,111.952 133.5,110C 150.405,108.529 167.405,108.029 184.5,108.5 Z"/></g>
<g><path style="opacity:1" fill="#e8eefe" d="M 184.5,108.5 C 185.167,108.5 185.833,108.5 186.5,108.5C 217.502,108.333 248.502,108.5 279.5,109C 282.583,109.786 284.749,111.619 286,114.5C 286.667,136.5 286.667,158.5 286,180.5C 284.749,183.381 282.583,185.214 279.5,186C 248.502,186.5 217.502,186.667 186.5,186.5C 185.833,186.5 185.167,186.5 184.5,186.5C 181.66,185.314 179.494,183.314 178,180.5C 177.501,176.848 177.335,173.182 177.5,169.5C 203.672,169.831 229.672,169.498 255.5,168.5C 259.083,167.578 260.75,165.244 260.5,161.5C 260.777,157.777 259.111,155.444 255.5,154.5C 229.672,153.502 203.672,153.169 177.5,153.5C 177.5,149.5 177.5,145.5 177.5,141.5C 186.682,141.827 195.682,141.493 204.5,140.5C 209.261,138.384 210.761,134.717 209,129.5C 208.167,128.667 207.333,127.833 206.5,127C 196.939,125.552 187.273,125.052 177.5,125.5C 177.335,121.818 177.501,118.152 178,114.5C 179.494,111.686 181.66,109.686 184.5,108.5 Z"/></g>
<g><path style="opacity:1" fill="#405ba2" d="M 177.5,125.5 C 187.273,125.052 196.939,125.552 206.5,127C 207.333,127.833 208.167,128.667 209,129.5C 210.761,134.717 209.261,138.384 204.5,140.5C 189.163,140.667 173.83,140.5 158.5,140C 154.5,135.667 154.5,131.333 158.5,127C 164.715,125.584 171.048,125.084 177.5,125.5 Z"/></g>
<g><path style="opacity:1" fill="#bfc9f7" d="M 226.5,125.5 C 231.284,124.839 235.618,125.839 239.5,128.5C 242.398,132.853 241.732,136.686 237.5,140C 233.167,140.667 228.833,140.667 224.5,140C 218.749,134.26 219.415,129.427 226.5,125.5 Z"/></g>
<g><path style="opacity:0.994" fill="#816ae1" d="M 51.5,128.5 C 63.444,138.439 75.1107,148.773 86.5,159.5C 86.44,160.043 86.1067,160.376 85.5,160.5C 80.3456,157.982 75.3456,157.982 70.5,160.5C 61.9,163.474 57.2333,169.641 56.5,179C 56.8001,184.43 58.6334,189.264 62,193.5C 70.3641,201.033 78.5308,208.7 86.5,216.5C 81.0227,215.298 75.6894,215.298 70.5,216.5C 59.126,221.584 54.9594,230.25 58,242.5C 59,244.5 60,246.5 61,248.5C 70.0311,256.7 78.8644,265.033 87.5,273.5C 81.8023,271.439 76.1356,271.105 70.5,272.5C 57.815,278.55 53.9817,288.216 59,301.5C 69.6747,312.342 80.5081,323.008 91.5,333.5C 91.3334,348.17 91.5001,362.837 92,377.5C 94.9584,393.125 104.125,402.958 119.5,407C 135.83,407.5 152.163,407.667 168.5,407.5C 175.219,416.726 182.886,425.226 191.5,433C 209.953,447.899 230.287,459.732 252.5,468.5C 263.853,476.022 273.02,485.688 280,497.5C 281.881,501.307 283.047,505.307 283.5,509.5C 284.833,509.5 286.167,509.5 287.5,509.5C 284.167,510.167 280.833,510.833 277.5,511.5C 262.833,511.5 248.167,511.5 233.5,511.5C 151.937,501.715 89.1041,462.381 45,393.5C 5.98767,324.782 -0.345661,253.115 26,178.5C 33.2182,161.062 41.7182,144.395 51.5,128.5 Z"/></g>
<g><path style="opacity:1" fill="#bec8f7" d="M 255.5,154.5 C 259.111,155.444 260.777,157.777 260.5,161.5C 260.75,165.244 259.083,167.578 255.5,168.5C 223.165,168.667 190.832,168.5 158.5,168C 154.5,163.667 154.5,159.333 158.5,155C 190.832,154.5 223.165,154.333 255.5,154.5 Z"/></g>
<g><path style="opacity:1" fill="#f7b98f" d="M 86.5,159.5 C 88.1667,160.833 89.8333,162.167 91.5,163.5C 98.8069,170.472 106.14,177.472 113.5,184.5C 120.553,190.22 126.553,196.887 131.5,204.5C 132.794,208.934 132.794,213.267 131.5,217.5C 125.697,218.215 120.03,217.049 114.5,214C 103.133,202.965 91.4663,192.298 79.5,182C 73.3987,176.055 70.3987,168.888 70.5,160.5C 75.3456,157.982 80.3456,157.982 85.5,160.5C 86.1067,160.376 86.44,160.043 86.5,159.5 Z"/></g>
<g><path style="opacity:1" fill="#faac6e" d="M 70.5,160.5 C 70.3987,168.888 73.3987,176.055 79.5,182C 91.4663,192.298 103.133,202.965 114.5,214C 120.03,217.049 125.697,218.215 131.5,217.5C 130.773,219.954 129.773,222.287 128.5,224.5C 124.385,228.976 119.385,231.642 113.5,232.5C 109.284,232.316 105.284,231.316 101.5,229.5C 96.801,224.8 91.801,220.466 86.5,216.5C 78.5308,208.7 70.3641,201.033 62,193.5C 58.6334,189.264 56.8001,184.43 56.5,179C 57.2333,169.641 61.9,163.474 70.5,160.5 Z"/></g>
<g><path style="opacity:1" fill="#d0daf9" d="M 186.5,201.5 C 178.113,203.923 175.113,209.59 177.5,218.5C 186.682,218.173 195.682,218.507 204.5,219.5C 189.163,219.333 173.83,219.5 158.5,220C 154.5,224.333 154.5,228.667 158.5,233C 173.83,233.5 189.163,233.667 204.5,233.5C 195.348,234.494 186.015,234.827 176.5,234.5C 176.5,238.833 176.5,243.167 176.5,247.5C 170.491,247.334 164.491,247.501 158.5,248C 155.606,250.909 154.773,254.409 156,258.5C 157.214,260.049 158.714,261.215 160.5,262C 166.157,262.499 171.824,262.666 177.5,262.5C 177.335,266.182 177.501,269.848 178,273.5C 179.36,276.023 181.193,278.023 183.5,279.5C 167.497,279.667 151.497,279.5 135.5,279C 133.922,277.906 132.255,277.072 130.5,276.5C 131.11,275.609 131.443,274.609 131.5,273.5C 133.408,266.782 132.408,260.449 128.5,254.5C 128.5,244.5 128.5,234.5 128.5,224.5C 129.773,222.287 130.773,219.954 131.5,217.5C 132.794,213.267 132.794,208.934 131.5,204.5C 133.14,203.68 134.807,202.847 136.5,202C 153.163,201.5 169.83,201.333 186.5,201.5 Z"/></g>
<g><path style="opacity:1" fill="#e8eefe" d="M 186.5,201.5 C 217.502,201.333 248.502,201.5 279.5,202C 282.583,202.786 284.749,204.619 286,207.5C 286.667,229.5 286.667,251.5 286,273.5C 284.833,276 283,277.833 280.5,279C 249.168,279.5 217.835,279.667 186.5,279.5C 185.5,279.5 184.5,279.5 183.5,279.5C 181.193,278.023 179.36,276.023 178,273.5C 177.501,269.848 177.335,266.182 177.5,262.5C 203.502,262.667 229.502,262.5 255.5,262C 260.224,259.565 261.724,255.731 260,250.5C 259.097,249.299 257.931,248.465 256.5,248C 229.835,247.5 203.169,247.333 176.5,247.5C 176.5,243.167 176.5,238.833 176.5,234.5C 186.015,234.827 195.348,234.494 204.5,233.5C 208.083,232.578 209.75,230.244 209.5,226.5C 209.75,222.756 208.083,220.422 204.5,219.5C 195.682,218.507 186.682,218.173 177.5,218.5C 175.113,209.59 178.113,203.923 186.5,201.5 Z"/></g>
<g><path style="opacity:1" fill="#f8b98f" d="M 70.5,216.5 C 75.6894,215.298 81.0227,215.298 86.5,216.5C 91.801,220.466 96.801,224.8 101.5,229.5C 105.474,233.138 109.474,236.805 113.5,240.5C 118.474,245.139 123.474,249.805 128.5,254.5C 132.408,260.449 133.408,266.782 131.5,273.5C 125.467,274.035 119.801,272.868 114.5,270C 103.799,259.631 92.7992,249.631 81.5,240C 73.8699,233.908 70.2033,226.074 70.5,216.5 Z"/></g>
<g><path style="opacity:1" fill="#faac6e" d="M 70.5,216.5 C 70.2033,226.074 73.8699,233.908 81.5,240C 92.7992,249.631 103.799,259.631 114.5,270C 119.801,272.868 125.467,274.035 131.5,273.5C 131.443,274.609 131.11,275.609 130.5,276.5C 127.056,283.606 121.389,287.606 113.5,288.5C 109.963,288.689 106.63,288.023 103.5,286.5C 98.1722,282.173 92.8388,277.84 87.5,273.5C 78.8644,265.033 70.0311,256.7 61,248.5C 60,246.5 59,244.5 58,242.5C 54.9594,230.25 59.126,221.584 70.5,216.5 Z"/></g>
<g><path style="opacity:1" fill="#3c58a0" d="M 204.5,219.5 C 208.083,220.422 209.75,222.756 209.5,226.5C 209.75,230.244 208.083,232.578 204.5,233.5C 189.163,233.667 173.83,233.5 158.5,233C 154.5,228.667 154.5,224.333 158.5,220C 173.83,219.5 189.163,219.333 204.5,219.5 Z"/></g>
<g><path style="opacity:1" fill="#bec8f7" d="M 224.5,219.5 C 228.846,219.334 233.179,219.501 237.5,220C 242.833,224.333 242.833,228.667 237.5,233C 233.167,233.667 228.833,233.667 224.5,233C 219.248,228.506 219.248,224.006 224.5,219.5 Z"/></g>
<g><path style="opacity:1" fill="#53abf4" d="M 128.5,224.5 C 128.5,234.5 128.5,244.5 128.5,254.5C 123.474,249.805 118.474,245.139 113.5,240.5C 113.5,237.833 113.5,235.167 113.5,232.5C 119.385,231.642 124.385,228.976 128.5,224.5 Z"/></g>
<g><path style="opacity:1" fill="#272f68" d="M 101.5,229.5 C 105.284,231.316 109.284,232.316 113.5,232.5C 113.5,235.167 113.5,237.833 113.5,240.5C 109.474,236.805 105.474,233.138 101.5,229.5 Z"/></g>
<g><path style="opacity:1" fill="#bec8f7" d="M 176.5,247.5 C 203.169,247.333 229.835,247.5 256.5,248C 257.931,248.465 259.097,249.299 260,250.5C 261.724,255.731 260.224,259.565 255.5,262C 229.502,262.5 203.502,262.667 177.5,262.5C 171.824,262.666 166.157,262.499 160.5,262C 158.714,261.215 157.214,260.049 156,258.5C 154.773,254.409 155.606,250.909 158.5,248C 164.491,247.501 170.491,247.334 176.5,247.5 Z"/></g>
<g><path style="opacity:1" fill="#f7b98e" d="M 70.5,272.5 C 76.1356,271.105 81.8023,271.439 87.5,273.5C 92.8388,277.84 98.1722,282.173 103.5,286.5C 103.062,286.435 102.728,286.601 102.5,287C 106.334,290.002 110,293.169 113.5,296.5C 118.694,301.272 123.694,306.272 128.5,311.5C 132.46,317.067 133.46,323.067 131.5,329.5C 126.733,329.809 122.066,329.309 117.5,328C 102.735,315.906 88.5688,303.073 75,289.5C 72.2349,284.057 70.7349,278.39 70.5,272.5 Z"/></g>
<g><path style="opacity:1" fill="#faac6e" d="M 70.5,272.5 C 70.7349,278.39 72.2349,284.057 75,289.5C 88.5688,303.073 102.735,315.906 117.5,328C 122.066,329.309 126.733,329.809 131.5,329.5C 131.224,332.719 129.891,335.385 127.5,337.5C 123.665,341.418 118.998,343.751 113.5,344.5C 110.393,344.649 107.393,344.149 104.5,343C 99.7823,340.313 95.449,337.146 91.5,333.5C 80.5081,323.008 69.6747,312.342 59,301.5C 53.9817,288.216 57.815,278.55 70.5,272.5 Z"/></g>
<g><path style="opacity:1" fill="#50abf6" d="M 130.5,276.5 C 132.255,277.072 133.922,277.906 135.5,279C 151.497,279.5 167.497,279.667 183.5,279.5C 184.5,279.5 185.5,279.5 186.5,279.5C 182.601,284.467 182.601,289.467 186.5,294.5C 169.83,294.333 153.163,294.5 136.5,295C 133.417,295.786 131.251,297.619 130,300.5C 129.823,304.356 129.323,308.023 128.5,311.5C 123.694,306.272 118.694,301.272 113.5,296.5C 113.5,293.833 113.5,291.167 113.5,288.5C 121.389,287.606 127.056,283.606 130.5,276.5 Z"/></g>
<g><path style="opacity:1" fill="#1e2b67" d="M 103.5,286.5 C 106.63,288.023 109.963,288.689 113.5,288.5C 113.5,291.167 113.5,293.833 113.5,296.5C 110,293.169 106.334,290.002 102.5,287C 102.728,286.601 103.062,286.435 103.5,286.5 Z"/></g>
<g><path style="opacity:1" fill="#d1dbfa" d="M 186.5,294.5 C 217.338,294.169 248.005,294.502 278.5,295.5C 246.498,295.333 214.498,295.5 182.5,296C 180.667,297.167 179.167,298.667 178,300.5C 177.501,304.152 177.335,307.818 177.5,311.5C 186.682,311.173 195.682,311.507 204.5,312.5C 189.163,312.333 173.83,312.5 158.5,313C 154.5,317.333 154.5,321.667 158.5,326C 164.379,327.41 170.379,327.91 176.5,327.5C 176.5,331.833 176.5,336.167 176.5,340.5C 170.824,340.334 165.157,340.501 159.5,341C 156.634,342.393 155.301,344.726 155.5,348C 155.283,351.235 156.617,353.568 159.5,355C 165.491,355.499 171.491,355.666 177.5,355.5C 177.335,359.182 177.501,362.848 178,366.5C 179.36,369.023 181.193,371.023 183.5,372.5C 168.5,372.5 153.5,372.5 138.5,372.5C 133.263,371.765 130.096,368.765 129,363.5C 128.83,354.657 128.33,345.99 127.5,337.5C 129.891,335.385 131.224,332.719 131.5,329.5C 133.46,323.067 132.46,317.067 128.5,311.5C 129.323,308.023 129.823,304.356 130,300.5C 131.251,297.619 133.417,295.786 136.5,295C 153.163,294.5 169.83,294.333 186.5,294.5 Z"/></g>
<g><path style="opacity:1" fill="#e8eefe" d="M 278.5,295.5 C 281.707,296.026 284.207,297.692 286,300.5C 286.667,322.5 286.667,344.5 286,366.5C 285.215,368.286 284.049,369.786 282.5,371C 249.587,372.486 216.587,372.986 183.5,372.5C 181.193,371.023 179.36,369.023 178,366.5C 177.501,362.848 177.335,359.182 177.5,355.5C 203.502,355.667 229.502,355.5 255.5,355C 260.687,352.133 261.854,347.967 259,342.5C 258.25,341.874 257.416,341.374 256.5,341C 229.835,340.5 203.169,340.333 176.5,340.5C 176.5,336.167 176.5,331.833 176.5,327.5C 186.605,327.949 196.605,327.449 206.5,326C 209.394,323.091 210.227,319.591 209,315.5C 207.729,314.117 206.229,313.117 204.5,312.5C 195.682,311.507 186.682,311.173 177.5,311.5C 177.335,307.818 177.501,304.152 178,300.5C 179.167,298.667 180.667,297.167 182.5,296C 214.498,295.5 246.498,295.333 278.5,295.5 Z"/></g>
<g><path style="opacity:1" fill="#405ba2" d="M 204.5,312.5 C 206.229,313.117 207.729,314.117 209,315.5C 210.227,319.591 209.394,323.091 206.5,326C 196.605,327.449 186.605,327.949 176.5,327.5C 170.379,327.91 164.379,327.41 158.5,326C 154.5,321.667 154.5,317.333 158.5,313C 173.83,312.5 189.163,312.333 204.5,312.5 Z"/></g>
<g><path style="opacity:1" fill="#bfc9f7" d="M 224.5,312.5 C 228.846,312.334 233.179,312.501 237.5,313C 243.241,318.558 242.574,323.225 235.5,327C 227.785,329.597 222.785,327.097 220.5,319.5C 221.071,316.687 222.404,314.354 224.5,312.5 Z"/></g>
<g><path style="opacity:1" fill="#152767" d="M 91.5,333.5 C 95.449,337.146 99.7823,340.313 104.5,343C 107.393,344.149 110.393,344.649 113.5,344.5C 113.333,355.172 113.5,365.839 114,376.5C 115.927,381.428 119.427,384.594 124.5,386C 141.497,386.5 158.497,386.667 175.5,386.5C 173.178,390.007 171.512,393.841 170.5,398C 171.428,401.353 172.761,404.52 174.5,407.5C 172.5,407.5 170.5,407.5 168.5,407.5C 152.163,407.667 135.83,407.5 119.5,407C 104.125,402.958 94.9584,393.125 92,377.5C 91.5001,362.837 91.3334,348.17 91.5,333.5 Z"/></g>
<g><path style="opacity:1" fill="#4fa5ef" d="M 127.5,337.5 C 128.33,345.99 128.83,354.657 129,363.5C 130.096,368.765 133.263,371.765 138.5,372.5C 153.328,373.331 168.328,373.831 183.5,374C 178.477,376.215 176.144,380.048 176.5,385.5C 214.5,385.5 252.5,385.5 290.5,385.5C 252.337,386.499 214.004,386.832 175.5,386.5C 158.497,386.667 141.497,386.5 124.5,386C 119.427,384.594 115.927,381.428 114,376.5C 113.5,365.839 113.333,355.172 113.5,344.5C 118.998,343.751 123.665,341.418 127.5,337.5 Z"/></g>
<g><path style="opacity:1" fill="#bec8f7" d="M 176.5,340.5 C 203.169,340.333 229.835,340.5 256.5,341C 257.416,341.374 258.25,341.874 259,342.5C 261.854,347.967 260.687,352.133 255.5,355C 229.502,355.5 203.502,355.667 177.5,355.5C 171.491,355.666 165.491,355.499 159.5,355C 156.617,353.568 155.283,351.235 155.5,348C 155.301,344.726 156.634,342.393 159.5,341C 165.157,340.501 170.824,340.334 176.5,340.5 Z"/></g>
<g><path style="opacity:1" fill="#fc995b" d="M 398.5,370.5 C 407.637,394.579 416.971,418.579 426.5,442.5C 387.759,480.033 341.426,502.367 287.5,509.5C 286.167,509.5 284.833,509.5 283.5,509.5C 283.047,505.307 281.881,501.307 280,497.5C 273.02,485.688 263.853,476.022 252.5,468.5C 270.105,472.33 287.771,472.497 305.5,469C 357.001,455.337 388.001,422.503 398.5,370.5 Z"/></g>
</svg>
