<?xml version="1.0" encoding="UTF-8"?>
<!DOCTYPE svg PUBLIC "-//W3C//DTD SVG 1.1//EN" "http://www.w3.org/Graphics/SVG/1.1/DTD/svg11.dtd">
<svg xmlns="http://www.w3.org/2000/svg" version="1.1" width="512px" height="512px" style="shape-rendering:geometricPrecision; text-rendering:geometricPrecision; image-rendering:optimizeQuality; fill-rule:evenodd; clip-rule:evenodd" xmlns:xlink="http://www.w3.org/1999/xlink">
<g><path style="opacity:0.997" fill="#d0e8f4" d="M 26.5,8.5 C 27.4975,108.43 27.8309,208.43 27.5,308.5C 18.5,308.5 9.5,308.5 0.5,308.5C 0.5,208.5 0.5,108.5 0.5,8.5C 9.16667,8.5 17.8333,8.5 26.5,8.5 Z"/></g>
<g><path style="opacity:1" fill="#e9f5fe" d="M 26.5,8.5 C 187.833,8.5 349.167,8.5 510.5,8.5C 510.5,108.5 510.5,208.5 510.5,308.5C 349.5,308.5 188.5,308.5 27.5,308.5C 27.8309,208.43 27.4975,108.43 26.5,8.5 Z"/></g>
<g><path style="opacity:1" fill="#efb042" d="M 145.5,39.5 C 145.5,59.1667 145.5,78.8333 145.5,98.5C 142.366,99.9009 139.366,101.568 136.5,103.5C 135.5,81.8436 135.167,60.1769 135.5,38.5C 138.86,38.6159 142.193,38.9492 145.5,39.5 Z"/></g>
<g><path style="opacity:1" fill="#fdc957" d="M 145.5,39.5 C 166.75,43.4162 182.75,54.7495 193.5,73.5C 177.761,82.3692 161.761,90.7025 145.5,98.5C 145.5,78.8333 145.5,59.1667 145.5,39.5 Z"/></g>
<g><path style="opacity:1" fill="#3a4a6a" d="M 361.5,43.5 C 370.193,44.0026 378.86,44.8359 387.5,46C 391.425,46.0627 394.925,47.2293 398,49.5C 398.923,51.0344 399.423,52.701 399.5,54.5C 398.522,64.8785 397.355,75.2119 396,85.5C 391.982,88.4386 388.315,88.1053 385,84.5C 384.829,79.4671 384.329,74.4671 383.5,69.5C 348.651,96.7593 313.985,124.259 279.5,152C 271.329,155.806 267.495,153.306 268,144.5C 303.742,115.713 339.575,87.0465 375.5,58.5C 370.897,57.3422 366.23,56.5089 361.5,56C 356.247,51.7893 356.247,47.6227 361.5,43.5 Z"/></g>
<g><path style="opacity:1" fill="#3f9bef" d="M 112.5,62.5 C 81.5951,71.6256 64.9284,92.2923 62.5,124.5C 63.9312,157.419 80.2645,178.919 111.5,189C 114.365,189.183 117.031,189.683 119.5,190.5C 82.9197,191.469 59.4197,174.469 49,139.5C 44.0246,101.942 59.1913,76.4424 94.5,63C 98.7457,61.6883 103.079,60.855 107.5,60.5C 109.64,60.5561 111.306,61.2227 112.5,62.5 Z"/></g>
<g><path style="opacity:1" fill="#54a0fe" d="M 112.5,62.5 C 112.333,83.5026 112.5,104.503 113,125.5C 127.804,141.305 142.971,156.805 158.5,172C 147.837,182.997 134.837,189.164 119.5,190.5C 117.031,189.683 114.365,189.183 111.5,189C 80.2645,178.919 63.9312,157.419 62.5,124.5C 64.9284,92.2923 81.5951,71.6256 112.5,62.5 Z"/></g>
<g><path style="opacity:1" fill="#ea1e48" d="M 467.5,69.5 C 461.167,69.5 454.833,69.5 448.5,69.5C 448.5,131.833 448.5,194.167 448.5,256.5C 442.5,256.5 436.5,256.5 430.5,256.5C 430.5,194.167 430.5,131.833 430.5,69.5C 442.833,68.1667 455.167,68.1667 467.5,69.5 Z"/></g>
<g><path style="opacity:1" fill="#fb314a" d="M 467.5,69.5 C 467.5,131.833 467.5,194.167 467.5,256.5C 461.167,256.5 454.833,256.5 448.5,256.5C 448.5,194.167 448.5,131.833 448.5,69.5C 454.833,69.5 461.167,69.5 467.5,69.5 Z"/></g>
<g><path style="opacity:1" fill="#fb334c" d="M 196.5,163.5 C 183.033,149.994 169.533,136.327 156,122.5C 155.517,121.552 155.351,120.552 155.5,119.5C 170.807,111.513 186.14,103.513 201.5,95.5C 210.795,112.887 211.962,130.887 205,149.5C 202.894,154.73 200.061,159.397 196.5,163.5 Z"/></g>
<g><path style="opacity:1" fill="#ea2049" d="M 155.5,119.5 C 155.351,120.552 155.517,121.552 156,122.5C 169.533,136.327 183.033,149.994 196.5,163.5C 194.869,167.304 192.202,169.804 188.5,171C 174.196,155.695 159.529,140.695 144.5,126C 148.194,123.822 151.861,121.655 155.5,119.5 Z"/></g>
<g><path style="opacity:1" fill="#eeb040" d="M 359.5,134.5 C 365.5,134.5 371.5,134.5 377.5,134.5C 377.5,175.167 377.5,215.833 377.5,256.5C 371.5,256.5 365.5,256.5 359.5,256.5C 359.5,215.833 359.5,175.167 359.5,134.5 Z"/></g>
<g><path style="opacity:1" fill="#fdc956" d="M 359.5,134.5 C 371.655,133.505 383.989,133.171 396.5,133.5C 396.5,174.5 396.5,215.5 396.5,256.5C 390.167,256.5 383.833,256.5 377.5,256.5C 377.5,215.833 377.5,175.167 377.5,134.5C 371.5,134.5 365.5,134.5 359.5,134.5 Z"/></g>
<g><path style="opacity:1" fill="#539ffe" d="M 306.5,180.5 C 312.833,180.5 319.167,180.5 325.5,180.5C 325.5,205.833 325.5,231.167 325.5,256.5C 319.167,256.5 312.833,256.5 306.5,256.5C 306.5,231.167 306.5,205.833 306.5,180.5 Z"/></g>
<g><path style="opacity:1" fill="#3c9aef" d="M 306.5,180.5 C 306.5,205.833 306.5,231.167 306.5,256.5C 300.5,256.5 294.5,256.5 288.5,256.5C 288.5,231.167 288.5,205.833 288.5,180.5C 294.5,180.5 300.5,180.5 306.5,180.5 Z"/></g>
<g><path style="opacity:1" fill="#394969" d="M 51.5,214.5 C 60.5062,214.334 69.5062,214.5 78.5,215C 81.9907,216.821 83.1574,219.654 82,223.5C 81.5,225.333 80.3333,226.5 78.5,227C 69.5,227.667 60.5,227.667 51.5,227C 46.217,222.886 46.217,218.719 51.5,214.5 Z"/></g>
<g><path style="opacity:1" fill="#384868" d="M 101.5,214.5 C 138.502,214.333 175.502,214.5 212.5,215C 216.292,217.053 217.458,220.219 216,224.5C 215.167,225.333 214.333,226.167 213.5,227C 176.167,227.667 138.833,227.667 101.5,227C 96.232,222.837 96.232,218.671 101.5,214.5 Z"/></g>
<g><path style="opacity:1" fill="#394969" d="M 51.5,239.5 C 60.5062,239.334 69.5062,239.5 78.5,240C 83.3977,243.522 83.731,247.522 79.5,252C 69.8333,252.667 60.1667,252.667 50.5,252C 46.3089,247.46 46.6422,243.293 51.5,239.5 Z"/></g>
<g><path style="opacity:1" fill="#384868" d="M 101.5,239.5 C 138.502,239.333 175.502,239.5 212.5,240C 217.321,243.601 217.654,247.601 213.5,252C 176.167,252.667 138.833,252.667 101.5,252C 96.217,247.886 96.217,243.719 101.5,239.5 Z"/></g>
<g><path style="opacity:1" fill="#a5889a" d="M 430.5,69.5 C 430.5,131.833 430.5,194.167 430.5,256.5C 406.833,257.833 383.167,257.833 359.5,256.5C 365.5,256.5 371.5,256.5 377.5,256.5C 383.833,256.5 390.167,256.5 396.5,256.5C 407.5,256.5 418.5,256.5 429.5,256.5C 429.168,193.998 429.501,131.664 430.5,69.5 Z"/></g>
<g><path style="opacity:1" fill="#3d4c6c" d="M 288.5,256.5 C 294.5,256.5 300.5,256.5 306.5,256.5C 312.833,256.5 319.167,256.5 325.5,256.5C 336.833,256.5 348.167,256.5 359.5,256.5C 383.167,257.833 406.833,257.833 430.5,256.5C 436.5,256.5 442.5,256.5 448.5,256.5C 454.833,256.5 461.167,256.5 467.5,256.5C 476.608,256.057 485.608,256.557 494.5,258C 498.758,262.721 498.091,266.721 492.5,270C 416.167,270.667 339.833,270.667 263.5,270C 259.591,267.434 258.591,263.934 260.5,259.5C 261.5,258.667 262.5,257.833 263.5,257C 271.827,256.5 280.16,256.334 288.5,256.5 Z"/></g>
<g><path style="opacity:1" fill="#3f4e6d" d="M 51.5,264.5 C 60.1731,264.334 68.8397,264.5 77.5,265C 84.1667,269.333 84.1667,273.667 77.5,278C 69.1667,278.667 60.8333,278.667 52.5,278C 46.3167,273.921 45.9834,269.421 51.5,264.5 Z"/></g>
<g><path style="opacity:1" fill="#3f4e6d" d="M 102.5,264.5 C 139.168,264.333 175.835,264.5 212.5,265C 218.089,269.795 217.756,274.128 211.5,278C 175.167,278.667 138.833,278.667 102.5,278C 95.9142,273.507 95.9142,269.007 102.5,264.5 Z"/></g>
<g><path style="opacity:1" fill="#566582" d="M 0.5,309.5 C 0.5,309.167 0.5,308.833 0.5,308.5C 9.5,308.5 18.5,308.5 27.5,308.5C 188.5,308.5 349.5,308.5 510.5,308.5C 510.5,308.833 510.5,309.167 510.5,309.5C 348.957,308.837 187.624,309.504 26.5,311.5C 18.2312,309.53 9.5645,308.864 0.5,309.5 Z"/></g>
<g><path style="opacity:0.986" fill="#2e4059" d="M 0.5,309.5 C 9.5645,308.864 18.2312,309.53 26.5,311.5C 27.4876,331.758 27.8209,352.091 27.5,372.5C 18.5,372.5 9.5,372.5 0.5,372.5C 0.5,351.5 0.5,330.5 0.5,309.5 Z"/></g>
<g><path style="opacity:1" fill="#374867" d="M 510.5,309.5 C 510.5,330.5 510.5,351.5 510.5,372.5C 436.5,372.5 362.5,372.5 288.5,372.5C 266.5,371.167 244.5,371.167 222.5,372.5C 157.5,372.5 92.5,372.5 27.5,372.5C 27.8209,352.091 27.4876,331.758 26.5,311.5C 187.624,309.504 348.957,308.837 510.5,309.5 Z"/></g>
<g><path style="opacity:1" fill="#cde5f1" d="M 261.5,323.5 C 247.946,329.082 244.779,338.415 252,351.5C 254.51,354.665 257.676,356.665 261.5,357.5C 247.169,360.307 239.169,354.307 237.5,339.5C 239.979,325.666 247.979,320.333 261.5,323.5 Z"/></g>
<g><path style="opacity:1" fill="#e8f4fd" d="M 261.5,323.5 C 273.606,329.09 276.773,338.09 271,350.5C 268.499,353.848 265.332,356.182 261.5,357.5C 257.676,356.665 254.51,354.665 252,351.5C 244.779,338.415 247.946,329.082 261.5,323.5 Z"/></g>
<g><path style="opacity:1" fill="#465b7a" d="M 288.5,372.5 C 273.833,372.5 259.167,372.5 244.5,372.5C 243.444,398.847 252.444,421.014 271.5,439C 276.818,442.824 282.484,445.991 288.5,448.5C 288.5,449.5 288.5,450.5 288.5,451.5C 266.5,451.5 244.5,451.5 222.5,451.5C 222.5,425.167 222.5,398.833 222.5,372.5C 244.5,371.167 266.5,371.167 288.5,372.5 Z"/></g>
<g><path style="opacity:0.99" fill="#506586" d="M 288.5,372.5 C 288.5,397.833 288.5,423.167 288.5,448.5C 282.484,445.991 276.818,442.824 271.5,439C 252.444,421.014 243.444,398.847 244.5,372.5C 259.167,372.5 273.833,372.5 288.5,372.5 Z"/></g>
<g><path style="opacity:0.97" fill="#32435e" d="M 209.5,451.5 C 199.871,453.615 193.038,459.282 189,468.5C 187.879,479.838 187.045,491.171 186.5,502.5C 178.167,502.5 169.833,502.5 161.5,502.5C 154.329,463.342 170.329,446.342 209.5,451.5 Z"/></g>
<g><path style="opacity:0.983" fill="#374767" d="M 209.5,451.5 C 213.833,451.5 218.167,451.5 222.5,451.5C 244.5,451.5 266.5,451.5 288.5,451.5C 302.171,451.333 315.837,451.5 329.5,452C 339.333,455.167 345.833,461.667 349,471.5C 349.5,481.828 349.666,492.161 349.5,502.5C 295.167,502.5 240.833,502.5 186.5,502.5C 187.045,491.171 187.879,479.838 189,468.5C 193.038,459.282 199.871,453.615 209.5,451.5 Z"/></g>
</svg>
