<?xml version="1.0" encoding="UTF-8"?>
<!DOCTYPE svg PUBLIC "-//W3C//DTD SVG 1.1//EN" "http://www.w3.org/Graphics/SVG/1.1/DTD/svg11.dtd">
<svg xmlns="http://www.w3.org/2000/svg" version="1.1" width="512px" height="512px" style="shape-rendering:geometricPrecision; text-rendering:geometricPrecision; image-rendering:optimizeQuality; fill-rule:evenodd; clip-rule:evenodd" xmlns:xlink="http://www.w3.org/1999/xlink">
<g><path style="opacity:0.979" fill="#00abe9" d="M 255.5,29.5 C 255.5,50.1667 255.5,70.8333 255.5,91.5C 173.645,92.2278 100.312,117.228 35.5,166.5C 23.0909,150.764 11.0909,134.764 -0.5,118.5C -0.5,117.5 -0.5,116.5 -0.5,115.5C 75.1684,59.1652 160.502,30.4985 255.5,29.5 Z"/></g>
<g><path style="opacity:1" fill="#009ff4" d="M 255.5,29.5 C 257.735,29.2053 259.735,29.5386 261.5,30.5C 259.833,30.5 258.167,30.5 256.5,30.5C 256.5,50.5 256.5,70.5 256.5,90.5C 260.702,90.1832 264.702,90.5166 268.5,91.5C 264.167,91.5 259.833,91.5 255.5,91.5C 255.5,70.8333 255.5,50.1667 255.5,29.5 Z"/></g>
<g><path style="opacity:1" fill="#0095fe" d="M 261.5,30.5 C 291.293,30.6136 320.627,34.2803 349.5,41.5C 351.438,43.1628 353.772,43.8294 356.5,43.5C 362.776,44.566 368.776,46.2327 374.5,48.5C 376.102,50.0739 378.102,50.7406 380.5,50.5C 427.489,64.7929 470.489,86.4596 509.5,115.5C 510.11,116.391 510.443,117.391 510.5,118.5C 505.232,127.371 499.232,135.705 492.5,143.5C 491.094,143.973 490.427,144.973 490.5,146.5C 488.853,149.473 486.853,152.14 484.5,154.5C 483.094,154.973 482.427,155.973 482.5,157.5C 480.72,160.454 478.72,163.287 476.5,166C 475.002,166.585 474.002,166.085 473.5,164.5C 472.738,162.738 471.404,161.738 469.5,161.5C 468.738,159.738 467.404,158.738 465.5,158.5C 465.027,157.094 464.027,156.427 462.5,156.5C 461.738,154.738 460.404,153.738 458.5,153.5C 458.027,152.094 457.027,151.427 455.5,151.5C 455.027,150.094 454.027,149.427 452.5,149.5C 452.027,148.094 451.027,147.427 449.5,147.5C 448.508,147.672 447.842,147.338 447.5,146.5C 447.027,145.094 446.027,144.427 444.5,144.5C 444.027,143.094 443.027,142.427 441.5,142.5C 439.847,142.34 438.514,141.674 437.5,140.5C 437.027,139.094 436.027,138.427 434.5,138.5C 433.508,138.672 432.842,138.338 432.5,137.5C 432.027,136.094 431.027,135.427 429.5,135.5C 379.106,109.038 325.439,94.3714 268.5,91.5C 264.702,90.5166 260.702,90.1832 256.5,90.5C 256.5,70.5 256.5,50.5 256.5,30.5C 258.167,30.5 259.833,30.5 261.5,30.5 Z"/></g>
<g><path style="opacity:0.969" fill="#019bf8" d="M 349.5,41.5 C 352.067,41.7215 354.401,42.3882 356.5,43.5C 353.772,43.8294 351.438,43.1628 349.5,41.5 Z"/></g>
<g><path style="opacity:0.957" fill="#009bf8" d="M 374.5,48.5 C 376.786,48.595 378.786,49.2616 380.5,50.5C 378.102,50.7406 376.102,50.0739 374.5,48.5 Z"/></g>
<g><path style="opacity:0.541" fill="#009df6" d="M 509.5,115.5 C 510.167,115.5 510.833,115.5 511.5,115.5C 511.5,116.5 511.5,117.5 511.5,118.5C 511.167,118.5 510.833,118.5 510.5,118.5C 510.443,117.391 510.11,116.391 509.5,115.5 Z"/></g>
<g><path style="opacity:0.741" fill="#009cf8" d="M 429.5,135.5 C 431.027,135.427 432.027,136.094 432.5,137.5C 430.973,137.573 429.973,136.906 429.5,135.5 Z"/></g>
<g><path style="opacity:0.298" fill="#009df6" d="M 434.5,138.5 C 436.027,138.427 437.027,139.094 437.5,140.5C 435.973,140.573 434.973,139.906 434.5,138.5 Z"/></g>
<g><path style="opacity:0.792" fill="#009cf7" d="M 441.5,142.5 C 443.027,142.427 444.027,143.094 444.5,144.5C 442.973,144.573 441.973,143.906 441.5,142.5 Z"/></g>
<g><path style="opacity:0.355" fill="#009df6" d="M 492.5,143.5 C 492.573,145.027 491.906,146.027 490.5,146.5C 490.427,144.973 491.094,143.973 492.5,143.5 Z"/></g>
<g><path style="opacity:0.355" fill="#009df6" d="M 444.5,144.5 C 446.027,144.427 447.027,145.094 447.5,146.5C 445.973,146.573 444.973,145.906 444.5,144.5 Z"/></g>
<g><path style="opacity:0.839" fill="#009bf8" d="M 449.5,147.5 C 451.027,147.427 452.027,148.094 452.5,149.5C 450.973,149.573 449.973,148.906 449.5,147.5 Z"/></g>
<g><path style="opacity:0.978" fill="#00abe9" d="M 255.5,149.5 C 255.5,170.167 255.5,190.833 255.5,211.5C 199.847,212.16 150.18,229.493 106.5,263.5C 93.8132,247.306 81.4798,230.806 69.5,214C 124.18,172.159 186.18,150.659 255.5,149.5 Z"/></g>
<g><path style="opacity:1" fill="#009ff4" d="M 255.5,149.5 C 257.415,149.216 259.081,149.549 260.5,150.5C 259.167,150.5 257.833,150.5 256.5,150.5C 256.5,170.5 256.5,190.5 256.5,210.5C 260.371,210.185 264.038,210.518 267.5,211.5C 263.5,211.5 259.5,211.5 255.5,211.5C 255.5,190.833 255.5,170.167 255.5,149.5 Z"/></g>
<g><path style="opacity:1" fill="#0095fe" d="M 260.5,150.5 C 281.446,150.494 302.113,152.827 322.5,157.5C 324.438,159.163 326.772,159.829 329.5,159.5C 363.147,167.497 394.147,181.164 422.5,200.5C 422.973,201.906 423.973,202.573 425.5,202.5C 431.2,206.016 436.533,210.016 441.5,214.5C 435.829,222.825 429.829,230.825 423.5,238.5C 422.094,238.973 421.427,239.973 421.5,241.5C 416.856,248.802 411.856,255.802 406.5,262.5C 405.167,262.167 403.833,261.833 402.5,261.5C 400.246,260.876 398.579,259.543 397.5,257.5C 396.738,255.738 395.404,254.738 393.5,254.5C 392.738,252.738 391.404,251.738 389.5,251.5C 388.508,251.672 387.842,251.338 387.5,250.5C 387.027,249.094 386.027,248.427 384.5,248.5C 384.027,247.094 383.027,246.427 381.5,246.5C 380.508,246.672 379.842,246.338 379.5,245.5C 379.027,244.094 378.027,243.427 376.5,243.5C 376.027,242.094 375.027,241.427 373.5,241.5C 361.731,235.615 349.731,230.282 337.5,225.5C 336.365,223.787 334.698,223.12 332.5,223.5C 329.933,223.279 327.599,222.612 325.5,221.5C 323.898,219.926 321.898,219.259 319.5,219.5C 316.627,219.198 313.961,218.531 311.5,217.5C 308.781,216.087 305.781,215.42 302.5,215.5C 290.883,213.756 279.216,212.423 267.5,211.5C 264.038,210.518 260.371,210.185 256.5,210.5C 256.5,190.5 256.5,170.5 256.5,150.5C 257.833,150.5 259.167,150.5 260.5,150.5 Z"/></g>
<g><path style="opacity:0.847" fill="#009bf8" d="M 452.5,149.5 C 454.027,149.427 455.027,150.094 455.5,151.5C 453.973,151.573 452.973,150.906 452.5,149.5 Z"/></g>
<g><path style="opacity:0.898" fill="#009bf8" d="M 455.5,151.5 C 457.027,151.427 458.027,152.094 458.5,153.5C 456.973,153.573 455.973,152.906 455.5,151.5 Z"/></g>
<g><path style="opacity:0.933" fill="#009bf8" d="M 458.5,153.5 C 460.404,153.738 461.738,154.738 462.5,156.5C 460.596,156.262 459.262,155.262 458.5,153.5 Z"/></g>
<g><path style="opacity:0.371" fill="#009df6" d="M 484.5,154.5 C 484.573,156.027 483.906,157.027 482.5,157.5C 482.427,155.973 483.094,154.973 484.5,154.5 Z"/></g>
<g><path style="opacity:0.784" fill="#009cf7" d="M 462.5,156.5 C 464.027,156.427 465.027,157.094 465.5,158.5C 463.973,158.573 462.973,157.906 462.5,156.5 Z"/></g>
<g><path style="opacity:0.963" fill="#009bf8" d="M 322.5,157.5 C 325.067,157.721 327.401,158.388 329.5,159.5C 326.772,159.829 324.438,159.163 322.5,157.5 Z"/></g>
<g><path style="opacity:0.957" fill="#009bf9" d="M 465.5,158.5 C 467.404,158.738 468.738,159.738 469.5,161.5C 467.596,161.262 466.262,160.262 465.5,158.5 Z"/></g>
<g><path style="opacity:0.996" fill="#019af9" d="M 469.5,161.5 C 471.404,161.738 472.738,162.738 473.5,164.5C 471.596,164.262 470.262,163.262 469.5,161.5 Z"/></g>
<g><path style="opacity:0.339" fill="#009df6" d="M 422.5,200.5 C 424.027,200.427 425.027,201.094 425.5,202.5C 423.973,202.573 422.973,201.906 422.5,200.5 Z"/></g>
<g><path style="opacity:0.965" fill="#009af9" d="M 302.5,215.5 C 305.781,215.42 308.781,216.087 311.5,217.5C 308.219,217.58 305.219,216.913 302.5,215.5 Z"/></g>
<g><path style="opacity:0.955" fill="#009bf8" d="M 319.5,219.5 C 321.898,219.259 323.898,219.926 325.5,221.5C 323.214,221.405 321.214,220.738 319.5,219.5 Z"/></g>
<g><path style="opacity:0.949" fill="#019bf8" d="M 332.5,223.5 C 334.698,223.12 336.365,223.787 337.5,225.5C 335.597,225.204 333.93,224.537 332.5,223.5 Z"/></g>
<g><path style="opacity:0.355" fill="#009df6" d="M 423.5,238.5 C 423.573,240.027 422.906,241.027 421.5,241.5C 421.427,239.973 422.094,238.973 423.5,238.5 Z"/></g>
<g><path style="opacity:0.812" fill="#009cf8" d="M 373.5,241.5 C 375.027,241.427 376.027,242.094 376.5,243.5C 374.973,243.573 373.973,242.906 373.5,241.5 Z"/></g>
<g><path style="opacity:0.341" fill="#009df6" d="M 376.5,243.5 C 378.027,243.427 379.027,244.094 379.5,245.5C 377.973,245.573 376.973,244.906 376.5,243.5 Z"/></g>
<g><path style="opacity:0.776" fill="#009cf7" d="M 381.5,246.5 C 383.027,246.427 384.027,247.094 384.5,248.5C 382.973,248.573 381.973,247.906 381.5,246.5 Z"/></g>
<g><path style="opacity:0.314" fill="#009df6" d="M 384.5,248.5 C 386.027,248.427 387.027,249.094 387.5,250.5C 385.973,250.573 384.973,249.906 384.5,248.5 Z"/></g>
<g><path style="opacity:0.957" fill="#009bf9" d="M 389.5,251.5 C 391.404,251.738 392.738,252.738 393.5,254.5C 391.596,254.262 390.262,253.262 389.5,251.5 Z"/></g>
<g><path style="opacity:0.996" fill="#019af9" d="M 393.5,254.5 C 395.404,254.738 396.738,255.738 397.5,257.5C 395.596,257.262 394.262,256.262 393.5,254.5 Z"/></g>
<g><path style="opacity:0.906" fill="#009bf8" d="M 402.5,261.5 C 403.833,261.833 405.167,262.167 406.5,262.5C 404.872,263.853 403.538,263.519 402.5,261.5 Z"/></g>
<g><path style="opacity:0.975" fill="#00abe9" d="M 255.5,269.5 C 255.5,290.167 255.5,310.833 255.5,331.5C 225.736,331.814 199.57,341.48 177,360.5C 164.356,344.554 152.189,328.221 140.5,311.5C 165.228,290.182 193.895,277.016 226.5,272C 236.151,270.923 245.817,270.09 255.5,269.5 Z"/></g>
<g><path style="opacity:1" fill="#009ff4" d="M 255.5,269.5 C 256.791,269.263 257.791,269.596 258.5,270.5C 256.512,290.139 255.845,310.139 256.5,330.5C 259.059,330.198 261.393,330.532 263.5,331.5C 260.833,331.5 258.167,331.5 255.5,331.5C 255.5,310.833 255.5,290.167 255.5,269.5 Z"/></g>
<g><path style="opacity:1" fill="#0095fe" d="M 258.5,270.5 C 274.625,270.687 290.291,273.354 305.5,278.5C 307.102,280.074 309.102,280.741 311.5,280.5C 332.892,286.945 352.392,296.945 370,310.5C 370.249,312.668 369.416,314.335 367.5,315.5C 366.094,315.973 365.427,316.973 365.5,318.5C 363.853,321.473 361.853,324.14 359.5,326.5C 358.094,326.973 357.427,327.973 357.5,329.5C 355.853,332.473 353.853,335.14 351.5,337.5C 350.094,337.973 349.427,338.973 349.5,340.5C 347.853,343.473 345.853,346.14 343.5,348.5C 342.094,348.973 341.427,349.973 341.5,351.5C 339.853,354.473 337.853,357.14 335.5,359.5C 334.167,359.167 332.833,358.833 331.5,358.5C 330.5,358.167 329.833,357.5 329.5,356.5C 328.738,354.738 327.404,353.738 325.5,353.5C 324.738,351.738 323.404,350.738 321.5,350.5C 321.027,349.094 320.027,348.427 318.5,348.5C 309.394,343.947 300.061,339.947 290.5,336.5C 288.562,334.837 286.228,334.171 283.5,334.5C 276.863,333.314 270.197,332.314 263.5,331.5C 261.393,330.532 259.059,330.198 256.5,330.5C 255.845,310.139 256.512,290.139 258.5,270.5 Z"/></g>
<g><path style="opacity:0.953" fill="#009bf8" d="M 305.5,278.5 C 307.786,278.595 309.786,279.262 311.5,280.5C 309.102,280.741 307.102,280.074 305.5,278.5 Z"/></g>
<g><path style="opacity:0.373" fill="#009df6" d="M 367.5,315.5 C 367.573,317.027 366.906,318.027 365.5,318.5C 365.427,316.973 366.094,315.973 367.5,315.5 Z"/></g>
<g><path style="opacity:0.373" fill="#009df6" d="M 359.5,326.5 C 359.573,328.027 358.906,329.027 357.5,329.5C 357.427,327.973 358.094,326.973 359.5,326.5 Z"/></g>
<g><path style="opacity:0.961" fill="#009bf8" d="M 283.5,334.5 C 286.228,334.171 288.562,334.837 290.5,336.5C 287.933,336.279 285.599,335.612 283.5,334.5 Z"/></g>
<g><path style="opacity:0.373" fill="#009df6" d="M 351.5,337.5 C 351.573,339.027 350.906,340.027 349.5,340.5C 349.427,338.973 350.094,337.973 351.5,337.5 Z"/></g>
<g><path style="opacity:0.373" fill="#009df6" d="M 343.5,348.5 C 343.573,350.027 342.906,351.027 341.5,351.5C 341.427,349.973 342.094,348.973 343.5,348.5 Z"/></g>
<g><path style="opacity:0.922" fill="#009af9" d="M 318.5,348.5 C 320.027,348.427 321.027,349.094 321.5,350.5C 319.973,350.573 318.973,349.906 318.5,348.5 Z"/></g>
<g><path style="opacity:0.937" fill="#009bf8" d="M 321.5,350.5 C 323.404,350.738 324.738,351.738 325.5,353.5C 323.596,353.262 322.262,352.262 321.5,350.5 Z"/></g>
<g><path style="opacity:0.882" fill="#009cf7" d="M 325.5,353.5 C 327.404,353.738 328.738,354.738 329.5,356.5C 327.596,356.262 326.262,355.262 325.5,353.5 Z"/></g>
<g><path style="opacity:0.973" fill="#009cf7" d="M 331.5,358.5 C 332.833,358.833 334.167,359.167 335.5,359.5C 334.092,361.86 332.759,361.526 331.5,358.5 Z"/></g>
<g><path style="opacity:0.974" fill="#00abe9" d="M 255.5,390.5 C 255.5,420.833 255.5,451.167 255.5,481.5C 227.72,478.72 212.72,463.386 210.5,435.5C 212.091,411.742 224.424,396.909 247.5,391C 250.146,390.503 252.813,390.336 255.5,390.5 Z"/></g>
<g><path style="opacity:1" fill="#009ff4" d="M 255.5,390.5 C 258.713,390.19 261.713,390.523 264.5,391.5C 261.833,391.5 259.167,391.5 256.5,391.5C 256.169,421.338 256.502,451.005 257.5,480.5C 257.158,481.338 256.492,481.672 255.5,481.5C 255.5,451.167 255.5,420.833 255.5,390.5 Z"/></g>
<g><path style="opacity:1" fill="#0095fe" d="M 264.5,391.5 C 264.833,391.5 265.167,391.5 265.5,391.5C 267.102,393.074 269.102,393.741 271.5,393.5C 275.42,394.127 278.753,395.793 281.5,398.5C 281.973,399.906 282.973,400.573 284.5,400.5C 286.833,402.167 288.833,404.167 290.5,406.5C 290.427,408.027 291.094,409.027 292.5,409.5C 294.25,410.659 295.25,412.326 295.5,414.5C 295.427,416.027 296.094,417.027 297.5,417.5C 303.246,431.757 302.413,445.757 295,459.5C 293.669,461.996 291.836,463.996 289.5,465.5C 288.094,465.973 287.427,466.973 287.5,468.5C 279.25,476.589 269.25,480.589 257.5,480.5C 256.502,451.005 256.169,421.338 256.5,391.5C 259.167,391.5 261.833,391.5 264.5,391.5 Z"/></g>
<g><path style="opacity:0.961" fill="#009bf8" d="M 265.5,391.5 C 267.786,391.595 269.786,392.262 271.5,393.5C 269.102,393.741 267.102,393.074 265.5,391.5 Z"/></g>
<g><path style="opacity:0.008" fill="#009ef6" d="M 281.5,398.5 C 283.027,398.427 284.027,399.094 284.5,400.5C 282.973,400.573 281.973,399.906 281.5,398.5 Z"/></g>
<g><path style="opacity:0.941" fill="#009cf7" d="M 290.5,406.5 C 291.906,406.973 292.573,407.973 292.5,409.5C 291.094,409.027 290.427,408.027 290.5,406.5 Z"/></g>
<g><path style="opacity:0.298" fill="#009df6" d="M 295.5,414.5 C 296.906,414.973 297.573,415.973 297.5,417.5C 296.094,417.027 295.427,416.027 295.5,414.5 Z"/></g>
<g><path style="opacity:0.031" fill="#009ef6" d="M 289.5,465.5 C 289.573,467.027 288.906,468.027 287.5,468.5C 287.427,466.973 288.094,465.973 289.5,465.5 Z"/></g>
</svg>
